<?xml version='1.0' encoding='ascii'?>
<svg xmlns="http://www.w3.org/2000/svg" height="1080" version="1.1" width="1920">
    <g id="View Layer_LineSet 2" inkscape:groupmode="lineset" inkscape:label="View Layer_LineSet 2" xmlns:inkscape="http://www.inkscape.org/namespaces/inkscape">
        <g id="strokes" inkscape:groupmode="layer" inkscape:label="strokes" xmlns:inkscape="http://www.inkscape.org/namespaces/inkscape">
            <path d=" M 1335.532, 317.686 1298.496, 304.842 1289.048, 301.565 1279.600, 298.289 1270.152, 295.012 1260.704, 291.736 1251.256, 288.459 1241.808, 285.183 1232.360, 281.906 1222.912, 278.630 1213.464, 275.353 1204.016, 272.077 1194.568, 268.800 1185.120, 265.524 1175.672, 262.247 1166.224, 258.971 1156.776, 255.694 1147.328, 252.418 1137.880, 249.141 1128.432, 245.865 1118.984, 242.588 1109.536, 239.312 1100.088, 236.035 1090.640, 232.759 1081.192, 229.482 1071.744, 226.206 1062.296, 222.929 1052.849, 219.653 1043.401, 216.376 1033.953, 213.099 1024.505, 209.823 1015.057, 206.546 1005.609, 203.270 996.161, 199.993 986.713, 196.717 977.265, 193.440 967.480, 190.047 957.927, 193.005 948.375, 195.964 938.823, 198.922 929.270, 201.880 919.718, 204.839 910.165, 207.797 900.613, 210.755 891.061, 213.713 881.508, 216.672 871.956, 219.630 862.403, 222.588 852.851, 225.547 843.299, 228.505 833.746, 231.463 824.194, 234.422 814.641, 237.380 805.089, 240.338 795.536, 243.296 785.984, 246.255 776.432, 249.213 766.879, 252.171 757.327, 255.130 747.774, 258.088 738.222, 261.046 728.670, 264.005 719.117, 266.963 709.565, 269.921 700.012, 272.880 690.460, 275.838 680.908, 278.796 671.355, 281.754 661.803, 284.713 652.250, 287.671 642.698, 290.629 633.146, 293.588 623.593, 296.546 610.579, 300.576 611.202, 310.557 611.825, 320.537 612.447, 330.518 613.070, 340.499 613.692, 350.479 614.315, 360.460 614.937, 370.440 615.560, 380.421 616.182, 390.402 616.805, 400.382 617.427, 410.363 618.050, 420.343 618.673, 430.324 619.295, 440.305 619.918, 450.285 620.540, 460.266 621.163, 470.246 621.785, 480.227 622.408, 490.208 623.030, 500.188 623.653, 510.169 624.276, 520.149 624.898, 530.130 625.521, 540.111 626.143, 550.091 626.766, 560.072 627.388, 570.052 628.011, 580.033 628.633, 590.014 629.256, 599.994 629.879, 609.975 630.501, 619.955 631.124, 629.936 631.746, 639.917 632.369, 649.897 632.991, 659.878 633.614, 669.858 634.236, 679.839 634.859, 689.820 635.482, 699.800 636.104, 709.781 636.727, 719.761 637.088, 725.548 645.630, 730.746 654.173, 735.944 662.716, 741.142 671.259, 746.340 679.802, 751.538 688.345, 756.736 696.888, 761.934 705.431, 767.132 713.973, 772.330 722.516, 777.528 731.059, 782.726 739.602, 787.924 748.145, 793.122 756.688, 798.320 765.231, 803.518 773.774, 808.716 782.316, 813.914 790.859, 819.112 799.402, 824.310 807.945, 829.508 816.488, 834.706 825.031, 839.904 833.574, 845.102 842.117, 850.300 850.659, 855.498 859.202, 860.696 867.745, 865.894 876.288, 871.092 884.831, 876.290 893.374, 881.488 901.917, 886.686 910.460, 891.884 919.003, 897.082 927.545, 902.280 936.088, 907.478 947.316, 914.309 956.130, 909.585 964.943, 904.861 973.757, 900.136 982.570, 895.412 991.384, 890.687 1000.198, 885.963 1009.011, 881.238 1017.825, 876.514 1026.638, 871.789 1035.452, 867.065 1044.266, 862.341 1053.079, 857.616 1061.893, 852.892 1070.706, 848.167 1079.520, 843.443 1088.334, 838.718 1097.147, 833.994 1105.961, 829.269 1114.775, 824.545 1123.588, 819.821 1132.402, 815.096 1141.215, 810.372 1150.029, 805.647 1158.843, 800.923 1167.656, 796.198 1176.470, 791.474 1185.283, 786.749 1194.097, 782.025 1202.911, 777.301 1211.724, 772.576 1220.538, 767.852 1229.351, 763.127 1238.165, 758.403 1246.979, 753.678 1255.792, 748.954 1264.606, 744.229 1273.419, 739.505 1281.379, 735.238 1282.000, 725.258 1282.620, 715.277 1283.241, 705.296 1283.862, 695.316 1284.483, 685.335 1285.103, 675.354 1285.724, 665.373 1286.345, 655.393 1286.966, 645.412 1287.586, 635.431 1288.207, 625.451 1288.828, 615.470 1289.449, 605.489 1290.069, 595.508 1290.690, 585.528 1291.311, 575.547 1291.932, 565.566 1292.552, 555.586 1293.173, 545.605 1293.794, 535.624 1294.415, 525.643 1295.036, 515.663 1295.656, 505.682 1296.277, 495.701 1296.898, 485.721 1297.519, 475.740 1298.139, 465.759 1298.760, 455.779 1299.381, 445.798 1300.002, 435.817 1300.622, 425.836 1301.243, 415.856 1301.864, 405.875 1302.485, 395.894 1303.105, 385.914 1303.726, 375.933 1304.347, 365.952 1304.968, 355.971 1305.589, 345.991 1306.209, 336.010 1306.830, 326.029 1307.451, 316.049 1309.757, 278.975 " fill="none" stroke="rgb(0, 0, 0)" stroke-linecap="butt" stroke-linejoin="round" stroke-opacity="1.0" stroke-width="1.0" />
            <path d=" M 583.873, 288.769 619.725, 304.620 628.871, 308.663 638.017, 312.707 647.163, 316.751 656.309, 320.794 665.455, 324.838 674.601, 328.882 683.747, 332.925 692.893, 336.969 702.039, 341.013 711.185, 345.056 720.331, 349.100 729.477, 353.143 738.623, 357.187 747.769, 361.231 756.915, 365.274 766.061, 369.318 775.207, 373.362 784.353, 377.405 793.499, 381.449 802.645, 385.493 811.791, 389.536 820.937, 393.580 830.083, 397.623 839.229, 401.667 848.375, 405.711 857.521, 409.754 866.667, 413.798 875.813, 417.842 884.959, 421.885 894.105, 425.929 903.251, 429.973 912.397, 434.016 921.543, 438.060 930.689, 442.103 939.835, 446.147 972.839, 460.739 " fill="none" stroke="rgb(0, 0, 0)" stroke-linecap="butt" stroke-linejoin="round" stroke-opacity="1.0" stroke-width="1.0" />
            <path d=" M 947.390, 943.509 947.291, 904.309 947.265, 894.310 947.240, 884.310 947.214, 874.310 947.189, 864.310 947.163, 854.310 947.138, 844.310 947.113, 834.310 947.087, 824.310 947.062, 814.310 947.036, 804.310 947.011, 794.310 946.985, 784.310 946.960, 774.310 946.935, 764.310 946.909, 754.310 946.884, 744.310 946.858, 734.310 946.833, 724.310 946.807, 714.310 946.782, 704.310 946.757, 694.310 946.731, 684.310 946.706, 674.310 946.680, 664.310 946.655, 654.310 946.629, 644.310 946.604, 634.310 946.579, 624.310 946.553, 614.310 946.528, 604.310 946.502, 594.311 946.477, 584.311 946.451, 574.311 946.426, 564.311 946.401, 554.311 946.375, 544.311 946.350, 534.311 946.324, 524.311 946.299, 514.311 946.273, 504.311 946.248, 494.311 946.223, 484.311 946.197, 474.311 946.172, 464.311 946.146, 454.311 946.133, 448.931 955.452, 445.305 964.771, 441.678 974.090, 438.051 983.409, 434.424 992.728, 430.797 1002.047, 427.170 1011.366, 423.543 1020.685, 419.916 1030.005, 416.289 1039.324, 412.663 1048.643, 409.036 1057.962, 405.409 1067.281, 401.782 1076.600, 398.155 1085.919, 394.528 1095.238, 390.901 1104.557, 387.274 1113.876, 383.647 1123.196, 380.021 1132.515, 376.394 1141.834, 372.767 1151.153, 369.140 1160.472, 365.513 1169.791, 361.886 1179.110, 358.259 1188.429, 354.632 1197.748, 351.005 1207.068, 347.379 1216.387, 343.752 1225.706, 340.125 1235.025, 336.498 1244.344, 332.871 1253.663, 329.244 1262.982, 325.617 1272.301, 321.990 1281.620, 318.363 1290.939, 314.737 1300.259, 311.110 1335.156, 297.528 " fill="none" stroke="rgb(0, 0, 0)" stroke-linecap="butt" stroke-linejoin="round" stroke-opacity="1.0" stroke-width="1.0" />
        </g>
    </g>
</svg>
