<?xml version='1.0' encoding='ascii'?>
<svg xmlns="http://www.w3.org/2000/svg" height="1080" version="1.1" width="1920">
    <g id="View Layer_LineSet 2" inkscape:groupmode="lineset" inkscape:label="View Layer_LineSet 2" xmlns:inkscape="http://www.inkscape.org/namespaces/inkscape">
        <g id="strokes" inkscape:groupmode="layer" inkscape:label="strokes" xmlns:inkscape="http://www.inkscape.org/namespaces/inkscape">
            <path d=" M 1306.873, 337.338 1298.262, 332.253 1289.652, 327.168 1281.041, 322.083 1272.430, 316.998 1263.820, 311.914 1255.209, 306.829 1246.599, 301.744 1237.988, 296.659 1229.377, 291.574 1220.766, 286.489 1212.156, 281.404 1203.545, 276.319 1194.935, 271.234 1186.324, 266.149 1177.713, 261.064 1169.103, 255.979 1160.492, 250.894 1151.881, 245.809 1143.271, 240.724 1134.660, 235.640 1126.049, 230.555 1117.439, 225.470 1108.828, 220.385 1100.217, 215.300 1091.607, 210.215 1082.996, 205.130 1074.385, 200.045 1065.775, 194.960 1057.164, 189.875 1048.553, 184.790 1039.943, 179.705 1031.332, 174.620 1022.721, 169.535 1014.111, 164.451 1005.500, 159.366 996.889, 154.281 988.279, 149.196 979.668, 144.111 971.057, 139.026 962.447, 133.941 953.836, 128.856 942.804, 122.341 934.031, 127.141 925.258, 131.940 916.485, 136.739 907.712, 141.538 898.939, 146.337 890.166, 151.137 881.393, 155.936 872.619, 160.735 863.846, 165.534 855.073, 170.334 846.300, 175.133 837.527, 179.932 828.754, 184.731 819.981, 189.530 811.208, 194.330 802.435, 199.129 793.661, 203.928 784.888, 208.727 776.115, 213.527 767.342, 218.326 758.569, 223.125 749.796, 227.924 741.023, 232.723 732.250, 237.523 723.477, 242.322 714.703, 247.121 705.930, 251.920 697.157, 256.720 688.384, 261.519 679.611, 266.318 670.838, 271.117 662.065, 275.916 653.292, 280.716 644.519, 285.515 635.745, 290.314 626.972, 295.113 618.199, 299.913 609.426, 304.712 600.653, 309.511 591.880, 314.310 583.107, 319.109 574.334, 323.909 564.547, 329.263 564.546, 339.263 564.546, 349.263 564.546, 359.263 564.546, 369.263 564.546, 379.263 564.545, 389.263 564.545, 399.263 564.545, 409.263 564.545, 419.263 564.544, 429.263 564.544, 439.263 564.544, 449.263 564.544, 459.263 564.544, 469.263 564.543, 479.263 564.543, 489.263 564.543, 499.263 564.543, 509.263 564.542, 519.263 564.542, 529.263 564.542, 539.263 564.542, 549.263 564.542, 559.263 564.541, 569.263 564.541, 579.263 564.541, 589.263 564.541, 599.263 564.541, 609.263 564.540, 619.263 564.540, 629.263 564.540, 639.263 564.540, 649.263 564.539, 659.263 564.539, 669.263 564.539, 679.263 564.539, 689.263 564.539, 699.263 564.538, 709.263 564.538, 719.263 564.538, 729.263 564.538, 739.263 564.537, 749.263 564.537, 761.217 573.148, 766.302 581.758, 771.387 590.369, 776.472 598.980, 781.557 607.590, 786.642 616.201, 791.727 624.812, 796.812 633.422, 801.897 642.033, 806.982 650.644, 812.067 659.254, 817.152 667.865, 822.237 676.476, 827.322 685.086, 832.406 693.697, 837.491 702.308, 842.576 710.918, 847.661 719.529, 852.746 728.140, 857.831 736.750, 862.916 745.361, 868.001 753.972, 873.086 762.582, 878.171 771.193, 883.256 779.804, 888.341 788.414, 893.426 797.025, 898.511 805.636, 903.596 814.246, 908.680 822.857, 913.765 831.468, 918.850 840.078, 923.935 848.689, 929.020 857.300, 934.105 865.910, 939.190 874.521, 944.275 883.132, 949.360 891.742, 954.445 900.353, 959.530 908.964, 964.615 917.574, 969.700 928.606, 976.214 937.379, 971.415 946.152, 966.616 954.925, 961.817 963.698, 957.017 972.471, 952.218 981.245, 947.419 990.018, 942.620 998.791, 937.820 1007.564, 933.021 1016.337, 928.222 1025.110, 923.423 1033.883, 918.624 1042.656, 913.824 1051.430, 909.025 1060.203, 904.226 1068.976, 899.427 1077.749, 894.627 1086.522, 889.828 1095.295, 885.029 1104.068, 880.230 1112.841, 875.431 1121.614, 870.631 1130.387, 865.832 1139.161, 861.033 1147.934, 856.234 1156.707, 851.434 1165.480, 846.635 1174.253, 841.836 1183.026, 837.037 1191.799, 832.238 1200.572, 827.438 1209.345, 822.639 1218.119, 817.840 1226.892, 813.041 1235.665, 808.241 1244.438, 803.442 1253.211, 798.643 1261.984, 793.844 1270.757, 789.045 1279.530, 784.245 1288.303, 779.446 1297.077, 774.647 1306.864, 769.293 1306.864, 759.293 1306.864, 749.293 1306.864, 739.293 1306.865, 729.293 1306.865, 719.293 1306.865, 709.293 1306.865, 699.293 1306.865, 689.293 1306.866, 679.293 1306.866, 669.293 1306.866, 659.293 1306.866, 649.293 1306.866, 639.293 1306.867, 629.293 1306.867, 619.293 1306.867, 609.293 1306.867, 599.293 1306.868, 589.293 1306.868, 579.293 1306.868, 569.293 1306.868, 559.293 1306.869, 549.293 1306.869, 539.293 1306.869, 529.293 1306.869, 519.293 1306.869, 509.293 1306.870, 499.293 1306.870, 489.293 1306.870, 479.293 1306.870, 469.293 1306.870, 459.293 1306.871, 449.293 1306.871, 439.293 1306.871, 429.293 1306.871, 419.293 1306.872, 409.293 1306.872, 399.293 1306.872, 389.293 1306.872, 379.293 1306.872, 369.293 1306.873, 359.293 1306.873, 349.293 1306.873, 337.338 " fill="none" stroke="rgb(0, 0, 0)" stroke-linecap="butt" stroke-linejoin="round" stroke-opacity="1.0" stroke-width="1.0" />
            <path d=" M 564.547, 329.263 573.157, 334.347 581.768, 339.432 590.379, 344.517 598.989, 349.602 607.600, 354.687 616.211, 359.772 624.821, 364.857 633.432, 369.942 642.043, 375.027 650.653, 380.112 659.264, 385.197 667.875, 390.282 676.485, 395.367 685.096, 400.452 693.707, 405.536 702.317, 410.621 710.928, 415.706 719.539, 420.791 728.149, 425.876 736.760, 430.961 745.370, 436.046 753.981, 441.131 762.592, 446.216 771.203, 451.301 779.813, 456.386 788.424, 461.471 797.034, 466.556 805.645, 471.641 814.256, 476.726 822.866, 481.810 831.477, 486.895 840.088, 491.980 848.698, 497.065 857.309, 502.150 865.920, 507.235 874.530, 512.320 883.141, 517.405 891.752, 522.490 900.362, 527.575 908.973, 532.660 917.584, 537.745 928.615, 544.259 " fill="none" stroke="rgb(0, 0, 0)" stroke-linecap="butt" stroke-linejoin="round" stroke-opacity="1.0" stroke-width="1.0" />
            <path d=" M 928.606, 976.214 928.606, 966.214 928.606, 956.214 928.607, 946.214 928.607, 936.214 928.607, 926.214 928.607, 916.214 928.607, 906.214 928.608, 896.214 928.608, 886.214 928.608, 876.214 928.608, 866.214 928.609, 856.214 928.609, 846.214 928.609, 836.214 928.609, 826.214 928.609, 816.214 928.610, 806.214 928.610, 796.214 928.610, 786.214 928.610, 776.214 928.611, 766.214 928.611, 756.214 928.611, 746.214 928.611, 736.214 928.611, 726.214 928.612, 716.214 928.612, 706.214 928.612, 696.214 928.612, 686.214 928.613, 676.214 928.613, 666.214 928.613, 656.214 928.613, 646.214 928.613, 636.214 928.614, 626.214 928.614, 616.214 928.614, 606.214 928.614, 596.214 928.615, 586.214 928.615, 576.214 928.615, 566.214 928.615, 556.214 928.615, 544.259 937.388, 539.460 946.162, 534.661 954.935, 529.862 963.708, 525.062 972.481, 520.263 981.254, 515.464 990.027, 510.665 998.800, 505.866 1007.573, 501.066 1016.346, 496.267 1025.120, 491.468 1033.893, 486.669 1042.666, 481.869 1051.439, 477.070 1060.212, 472.271 1068.985, 467.472 1077.758, 462.673 1086.531, 457.873 1095.304, 453.074 1104.078, 448.275 1112.851, 443.476 1121.624, 438.676 1130.397, 433.877 1139.170, 429.078 1147.943, 424.279 1156.716, 419.480 1165.489, 414.680 1174.262, 409.881 1183.036, 405.082 1191.809, 400.283 1200.582, 395.483 1209.355, 390.684 1218.128, 385.885 1226.901, 381.086 1235.674, 376.287 1244.447, 371.487 1253.220, 366.688 1261.994, 361.889 1270.767, 357.090 1279.540, 352.290 1288.313, 347.491 1297.086, 342.692 1306.873, 337.338 " fill="none" stroke="rgb(0, 0, 0)" stroke-linecap="butt" stroke-linejoin="round" stroke-opacity="1.0" stroke-width="1.0" />
        </g>
    </g>
</svg>
