<?xml version="1.0" encoding="UTF-8" standalone="no"?>
<!DOCTYPE svg PUBLIC "-//W3C//DTD SVG 1.1//EN" "https://www.w3.org/Graphics/SVG/1.1/DTD/svg11.dtd">
<svg width="100%" height="100%" viewBox="0 0 57 38" version="1.1" xmlns="https://www.w3.org/2000/svg" xmlns:xlink="https://www.w3.org/1999/xlink" xml:space="preserve" xmlns:serif="https://www.serif.com/" style="fill-rule:evenodd;clip-rule:evenodd;stroke-linejoin:round;stroke-miterlimit:2;">
    <g transform="matrix(1,0,0,1,-367.612,-178.829)">
        <g transform="matrix(0.0163717,0,0,0.0160343,139.038,148.143)">
            <path d="M15464.3,4054.96C15361.1,4090.02 15250.5,4109.02 15135.5,4109.02C15005.6,4109.02 14881.2,4084.74 14766.8,4040.44C14727.4,4025.18 14683.3,4045.46 14668.3,4085.69C14653.4,4125.92 14673.3,4170.97 14712.7,4186.23C14843.9,4237.03 14986.5,4264.93 15135.5,4264.93C15267.4,4264.93 15394.2,4243.1 15512.5,4202.9C15552.5,4189.31 15574.2,4145.14 15560.9,4104.31C15547.5,4063.49 15504.3,4041.37 15464.3,4054.96ZM16142.8,2920.09C16152,2975.14 16156.8,3031.68 16156.8,3089.34C16156.8,3281.51 16103.5,3461.32 16010.8,3614.76C15988.7,3651.38 15999.8,3699.45 16035.7,3722.04C16071.5,3744.62 16118.6,3733.23 16140.7,3696.61C16247.9,3519.27 16309.5,3311.45 16309.5,3089.34C16309.5,3022.73 16304,2957.4 16293.3,2893.8C16286.2,2851.39 16246.7,2822.85 16205.2,2830.1C16163.6,2837.36 16135.7,2877.68 16142.8,2920.09ZM14238.8,3577.52C14159.4,3432.54 14114.2,3266.17 14114.2,3089.34C14114.2,3016.79 14121.8,2946.01 14136.3,2877.74C14145.2,2835.69 14119,2794.17 14077.8,2785.08C14036.6,2775.99 13995.9,2802.75 13987,2844.81C13970.3,2923.7 13961.5,3005.5 13961.5,3089.34C13961.5,3293.75 14013.8,3486.06 14105.6,3653.64C14126.1,3691.19 14172.7,3704.62 14209.5,3683.62C14246.3,3662.61 14259.4,3615.07 14238.8,3577.52ZM15113.6,2069.89C14887.5,2074.66 14679.4,2152.89 14512.3,2281.73C14478.7,2307.66 14430.7,2300.82 14405.3,2266.48C14380,2232.14 14386.6,2183.22 14420.3,2157.3C14618.3,2004.64 14866.4,1913.74 15135.5,1913.74L15149,1913.82C15430.5,1916.98 15688.3,2019.61 15889,2188.08C15921.6,2215.4 15926.3,2264.57 15899.5,2297.81C15872.8,2331.04 15824.6,2335.84 15792.1,2308.52C15614.4,2159.41 15385.4,2069.66 15135.5,2069.66L15113.6,2069.89Z"/>
        </g>
        <g transform="matrix(0.0163717,0,0,0.0160343,157.008,148.143)">
            <path d="M15135.5,1958.71C14825.9,1958.71 14545.2,2083.59 14341.1,2285.63C14133.9,2490.66 14005.6,2775.13 14005.6,3089.34C14005.6,3403.54 14133.9,3688.01 14341.1,3893.05C14545.2,4095.09 14825.9,4219.97 15135.5,4219.97C15445.1,4219.97 15725.8,4095.09 15930,3893.05C16137.1,3688.01 16265.5,3403.54 16265.5,3089.34C16265.5,2775.13 16137.1,2490.66 15930,2285.63C15725.8,2083.59 15445.1,1958.71 15135.5,1958.71ZM15135.5,2024.69C15427.6,2024.69 15692.4,2142.41 15885,2333C16079.9,2525.96 16200.9,2793.64 16200.9,3089.34C16200.9,3385.04 16079.9,3652.71 15885,3845.67C15692.4,4036.26 15427.6,4153.98 15135.5,4153.98C14843.4,4153.98 14578.6,4036.26 14386.1,3845.67C14191.1,3652.71 14070.2,3385.04 14070.2,3089.34C14070.2,2793.64 14191.1,2525.96 14386.1,2333C14578.6,2142.41 14843.4,2024.69 15135.5,2024.69Z"/>
        </g>
        <g transform="matrix(6.63117,0,0,6.63117,390.032,200.044)">
            <path d="M0.219,0L0.417,0L0.417,-0.543L0.631,-0.543L0.631,-0.7L0.004,-0.7L0.004,-0.543L0.219,-0.543L0.219,0Z" style="fill-rule:nonzero;"/>
        </g>
        <g transform="matrix(6.63117,0,0,6.63117,396.836,200.044)">
            <path d="M0.423,0.014C0.647,0.014 0.812,-0.14 0.812,-0.35C0.812,-0.56 0.647,-0.714 0.423,-0.714C0.199,-0.714 0.034,-0.56 0.034,-0.35C0.034,-0.14 0.199,0.014 0.423,0.014ZM0.423,-0.15C0.317,-0.15 0.234,-0.229 0.234,-0.35C0.234,-0.471 0.317,-0.55 0.423,-0.55C0.529,-0.55 0.612,-0.471 0.612,-0.35C0.612,-0.229 0.529,-0.15 0.423,-0.15Z" style="fill-rule:nonzero;"/>
        </g>
        <g transform="matrix(6.63117,0,0,6.63117,407.201,200.044)">
            <path d="M0.07,0L0.401,0C0.633,0 0.792,-0.135 0.792,-0.35C0.792,-0.565 0.633,-0.7 0.401,-0.7L0.07,-0.7L0.07,0ZM0.268,-0.158L0.268,-0.542L0.393,-0.542C0.512,-0.542 0.592,-0.471 0.592,-0.35C0.592,-0.229 0.512,-0.158 0.393,-0.158L0.268,-0.158Z" style="fill-rule:nonzero;"/>
        </g>
        <g transform="matrix(6.63117,0,0,6.63117,415.058,200.044)">
            <path d="M0.538,-0.7L0.538,-0.437L0.268,-0.437L0.268,-0.7L0.07,-0.7L0.07,0L0.268,0L0.268,-0.273L0.538,-0.273L0.538,0L0.736,0L0.736,-0.7L0.538,-0.7Z" style="fill-rule:nonzero;"/>
        </g>
    </g>
</svg>
